# xmcd
#
# Track frame offsets:
#	150
#	12860
#	26440
#	42223
#	51728
#	68900
#	79025
#	94913
#	108545
#	123153
#	132603
#	142345
#	154333
#
# Disc length: 2169 seconds
#
# Revision: 1
# Processed by: cddbd v1.4PL0 Copyright (c) Steve Scherf et al.
# Submitted via: audiograbber 1.81.03
#
DISCID=bc08770d
DTITLE=Tamra Rosanes - Footloose
DYEAR=1993
DGENRE=Country
TTITLE0=My Toot Toot
TTITLE1=That's the way the world goes 'round
TTITLE2=Do I ever cross your mind
TTITLE3=Long way home
TTITLE4=Jambalaya
TTITLE5=It's happening to you
TTITLE6=You the man
TTITLE7=Love that works
TTITLE8=Tourist in paradise
TTITLE9=Jole Blon
TTITLE10=Louisiana Saturday Night
TTITLE11=Footloose
TTITLE12=Open space
EXTD=
EXTT0=
EXTT1=
EXTT2=
EXTT3=
EXTT4=
EXTT5=
EXTT6=
EXTT7=
EXTT8=
EXTT9=
EXTT10=
EXTT11=
EXTT12=
PLAYORDER=
